<mxfile host="Electron" modified="2024-02-25T09:51:06.020Z" agent="Mozilla/5.0 (Windows NT 10.0; Win64; x64) AppleWebKit/537.36 (KHTML, like Gecko) draw.io/23.1.5 Chrome/120.0.6099.109 Electron/28.1.0 Safari/537.36" etag="nnexW3M4xm9dGW5TEAFt" version="23.1.5" type="device">
  <diagram name="Page-1" id="PQzVQOpp44N9ju4Eo7jp">
    <mxGraphModel dx="1434" dy="836" grid="1" gridSize="10" guides="1" tooltips="1" connect="1" arrows="1" fold="1" page="1" pageScale="1" pageWidth="850" pageHeight="1100" math="0" shadow="0">
      <root>
        <mxCell id="0" />
        <mxCell id="1" parent="0" />
        <mxCell id="8U288hd-d6_1_I51lwPs-1" value="&lt;b&gt;User&lt;/b&gt;" style="shape=umlActor;verticalLabelPosition=bottom;verticalAlign=top;html=1;outlineConnect=0;" parent="1" vertex="1">
          <mxGeometry x="50" y="80" width="30" height="60" as="geometry" />
        </mxCell>
        <mxCell id="8U288hd-d6_1_I51lwPs-8" style="rounded=0;orthogonalLoop=1;jettySize=auto;html=1;endArrow=none;endFill=0;entryX=0.5;entryY=0.5;entryDx=0;entryDy=0;entryPerimeter=0;exitX=0;exitY=0.5;exitDx=0;exitDy=0;" parent="1" source="8U288hd-d6_1_I51lwPs-6" target="8U288hd-d6_1_I51lwPs-1" edge="1">
          <mxGeometry relative="1" as="geometry" />
        </mxCell>
        <mxCell id="8U288hd-d6_1_I51lwPs-6" value="Login" style="ellipse;whiteSpace=wrap;html=1;" parent="1" vertex="1">
          <mxGeometry x="250" y="20" width="90" height="40" as="geometry" />
        </mxCell>
        <mxCell id="8U288hd-d6_1_I51lwPs-7" value="Verify Request" style="ellipse;whiteSpace=wrap;html=1;" parent="1" vertex="1">
          <mxGeometry x="430" y="20" width="90" height="40" as="geometry" />
        </mxCell>
        <mxCell id="8U288hd-d6_1_I51lwPs-9" value="" style="endArrow=openThin;dashed=1;html=1;dashPattern=1 3;strokeWidth=2;rounded=0;exitX=1;exitY=0.5;exitDx=0;exitDy=0;entryX=0;entryY=0.5;entryDx=0;entryDy=0;startArrow=none;startFill=0;endFill=0;" parent="1" source="8U288hd-d6_1_I51lwPs-6" target="8U288hd-d6_1_I51lwPs-7" edge="1">
          <mxGeometry width="50" height="50" relative="1" as="geometry">
            <mxPoint x="460" y="220" as="sourcePoint" />
            <mxPoint x="510" y="170" as="targetPoint" />
          </mxGeometry>
        </mxCell>
        <mxCell id="8U288hd-d6_1_I51lwPs-10" value="&amp;lt;&amp;lt;include&amp;gt;&amp;gt;" style="text;html=1;strokeColor=none;fillColor=none;align=center;verticalAlign=middle;whiteSpace=wrap;rounded=0;" parent="1" vertex="1">
          <mxGeometry x="350" y="10" width="60" height="30" as="geometry" />
        </mxCell>
        <mxCell id="8U288hd-d6_1_I51lwPs-11" value="Logout" style="ellipse;whiteSpace=wrap;html=1;" parent="1" vertex="1">
          <mxGeometry x="250" y="80" width="90" height="40" as="geometry" />
        </mxCell>
        <mxCell id="8U288hd-d6_1_I51lwPs-12" style="rounded=0;orthogonalLoop=1;jettySize=auto;html=1;entryX=0.5;entryY=0.5;entryDx=0;entryDy=0;entryPerimeter=0;endArrow=none;endFill=0;" parent="1" source="8U288hd-d6_1_I51lwPs-11" target="8U288hd-d6_1_I51lwPs-1" edge="1">
          <mxGeometry relative="1" as="geometry" />
        </mxCell>
        <mxCell id="8U288hd-d6_1_I51lwPs-13" value="Update Profile" style="ellipse;whiteSpace=wrap;html=1;" parent="1" vertex="1">
          <mxGeometry x="250" y="140" width="90" height="40" as="geometry" />
        </mxCell>
        <mxCell id="8U288hd-d6_1_I51lwPs-14" style="rounded=0;orthogonalLoop=1;jettySize=auto;html=1;entryX=0.5;entryY=0.5;entryDx=0;entryDy=0;entryPerimeter=0;endArrow=none;endFill=0;exitX=0;exitY=0.5;exitDx=0;exitDy=0;" parent="1" source="8U288hd-d6_1_I51lwPs-13" target="8U288hd-d6_1_I51lwPs-1" edge="1">
          <mxGeometry relative="1" as="geometry" />
        </mxCell>
        <mxCell id="8U288hd-d6_1_I51lwPs-15" value="Reset Password" style="ellipse;whiteSpace=wrap;html=1;" parent="1" vertex="1">
          <mxGeometry x="250" y="200" width="90" height="40" as="geometry" />
        </mxCell>
        <mxCell id="8U288hd-d6_1_I51lwPs-16" style="edgeStyle=none;shape=connector;rounded=0;orthogonalLoop=1;jettySize=auto;html=1;entryX=0.5;entryY=0.5;entryDx=0;entryDy=0;entryPerimeter=0;labelBackgroundColor=default;strokeColor=default;align=center;verticalAlign=middle;fontFamily=Helvetica;fontSize=11;fontColor=default;endArrow=none;endFill=0;exitX=0;exitY=0.5;exitDx=0;exitDy=0;" parent="1" source="8U288hd-d6_1_I51lwPs-15" target="8U288hd-d6_1_I51lwPs-1" edge="1">
          <mxGeometry relative="1" as="geometry" />
        </mxCell>
        <mxCell id="8U288hd-d6_1_I51lwPs-17" value="Verify Account" style="ellipse;whiteSpace=wrap;html=1;" parent="1" vertex="1">
          <mxGeometry x="450" y="195" width="100" height="50" as="geometry" />
        </mxCell>
        <mxCell id="8U288hd-d6_1_I51lwPs-18" value="" style="endArrow=openThin;dashed=1;html=1;dashPattern=1 3;strokeWidth=2;rounded=0;exitX=1;exitY=0.5;exitDx=0;exitDy=0;entryX=0;entryY=0.5;entryDx=0;entryDy=0;startArrow=none;startFill=0;endFill=0;" parent="1" target="8U288hd-d6_1_I51lwPs-17" edge="1">
          <mxGeometry width="50" height="50" relative="1" as="geometry">
            <mxPoint x="340" y="220" as="sourcePoint" />
            <mxPoint x="530" y="350" as="targetPoint" />
          </mxGeometry>
        </mxCell>
        <mxCell id="8U288hd-d6_1_I51lwPs-19" value="&amp;lt;&amp;lt;include&amp;gt;&amp;gt;" style="text;html=1;strokeColor=none;fillColor=none;align=center;verticalAlign=middle;whiteSpace=wrap;rounded=0;" parent="1" vertex="1">
          <mxGeometry x="370" y="190" width="60" height="30" as="geometry" />
        </mxCell>
        <mxCell id="8U288hd-d6_1_I51lwPs-21" value="Email Verification" style="ellipse;whiteSpace=wrap;html=1;" parent="1" vertex="1">
          <mxGeometry x="690" y="190" width="100" height="50" as="geometry" />
        </mxCell>
        <mxCell id="8U288hd-d6_1_I51lwPs-24" value="" style="endArrow=none;dashed=1;html=1;dashPattern=1 3;strokeWidth=2;rounded=0;labelBackgroundColor=default;strokeColor=default;align=center;verticalAlign=middle;fontFamily=Helvetica;fontSize=11;fontColor=default;shape=connector;exitX=1;exitY=0.5;exitDx=0;exitDy=0;entryX=0;entryY=0.5;entryDx=0;entryDy=0;startArrow=openThin;startFill=0;" parent="1" source="8U288hd-d6_1_I51lwPs-17" target="8U288hd-d6_1_I51lwPs-21" edge="1">
          <mxGeometry width="50" height="50" relative="1" as="geometry">
            <mxPoint x="480" y="200" as="sourcePoint" />
            <mxPoint x="530" y="150" as="targetPoint" />
          </mxGeometry>
        </mxCell>
        <mxCell id="8U288hd-d6_1_I51lwPs-25" value="&amp;lt;&amp;lt;include&amp;gt;&amp;gt;" style="text;html=1;strokeColor=none;fillColor=none;align=center;verticalAlign=middle;whiteSpace=wrap;rounded=0;" parent="1" vertex="1">
          <mxGeometry x="590" y="190" width="60" height="30" as="geometry" />
        </mxCell>
        <mxCell id="8U288hd-d6_1_I51lwPs-26" value="&lt;b&gt;Owner&lt;br&gt;&lt;/b&gt;" style="shape=umlActor;verticalLabelPosition=bottom;verticalAlign=top;html=1;outlineConnect=0;" parent="1" vertex="1">
          <mxGeometry x="40" y="640" width="30" height="60" as="geometry" />
        </mxCell>
        <mxCell id="8U288hd-d6_1_I51lwPs-27" value="Add employee" style="ellipse;whiteSpace=wrap;html=1;" parent="1" vertex="1">
          <mxGeometry x="250" y="320" width="90" height="40" as="geometry" />
        </mxCell>
        <mxCell id="8U288hd-d6_1_I51lwPs-29" value="Add manager" style="ellipse;whiteSpace=wrap;html=1;" parent="1" vertex="1">
          <mxGeometry x="530" y="310" width="90" height="50" as="geometry" />
        </mxCell>
        <mxCell id="8U288hd-d6_1_I51lwPs-30" value="" style="endArrow=none;dashed=1;html=1;dashPattern=1 3;strokeWidth=2;rounded=0;labelBackgroundColor=default;strokeColor=default;align=center;verticalAlign=middle;fontFamily=Helvetica;fontSize=11;fontColor=default;shape=connector;exitX=1;exitY=0.5;exitDx=0;exitDy=0;entryX=0;entryY=0.5;entryDx=0;entryDy=0;startArrow=openThin;startFill=0;" parent="1" target="8U288hd-d6_1_I51lwPs-29" edge="1">
          <mxGeometry width="50" height="50" relative="1" as="geometry">
            <mxPoint x="340" y="340" as="sourcePoint" />
            <mxPoint x="330" y="270" as="targetPoint" />
          </mxGeometry>
        </mxCell>
        <mxCell id="8U288hd-d6_1_I51lwPs-31" value="&amp;lt;&amp;lt;include&amp;gt;&amp;gt;" style="text;html=1;strokeColor=none;fillColor=none;align=center;verticalAlign=middle;whiteSpace=wrap;rounded=0;" parent="1" vertex="1">
          <mxGeometry x="390" y="310" width="60" height="30" as="geometry" />
        </mxCell>
        <mxCell id="8U288hd-d6_1_I51lwPs-32" value="Add delivery staff" style="ellipse;whiteSpace=wrap;html=1;" parent="1" vertex="1">
          <mxGeometry x="630" y="370" width="90" height="50" as="geometry" />
        </mxCell>
        <mxCell id="8U288hd-d6_1_I51lwPs-33" value="" style="endArrow=none;dashed=1;html=1;dashPattern=1 3;strokeWidth=2;rounded=0;labelBackgroundColor=default;strokeColor=default;align=center;verticalAlign=middle;fontFamily=Helvetica;fontSize=11;fontColor=default;shape=connector;entryX=0;entryY=0.5;entryDx=0;entryDy=0;startArrow=openThin;startFill=0;exitX=1;exitY=1;exitDx=0;exitDy=0;" parent="1" source="8U288hd-d6_1_I51lwPs-27" edge="1">
          <mxGeometry width="50" height="50" relative="1" as="geometry">
            <mxPoint x="470" y="370" as="sourcePoint" />
            <mxPoint x="630" y="400" as="targetPoint" />
          </mxGeometry>
        </mxCell>
        <mxCell id="8U288hd-d6_1_I51lwPs-36" value="&amp;lt;&amp;lt;include&amp;gt;&amp;gt;" style="text;html=1;strokeColor=none;fillColor=none;align=center;verticalAlign=middle;whiteSpace=wrap;rounded=0;" parent="1" vertex="1">
          <mxGeometry x="470" y="350" width="60" height="30" as="geometry" />
        </mxCell>
        <mxCell id="8U288hd-d6_1_I51lwPs-48" style="edgeStyle=none;shape=connector;rounded=0;orthogonalLoop=1;jettySize=auto;html=1;labelBackgroundColor=default;strokeColor=default;align=center;verticalAlign=middle;fontFamily=Helvetica;fontSize=11;fontColor=default;endArrow=none;endFill=0;entryX=0.5;entryY=0.5;entryDx=0;entryDy=0;entryPerimeter=0;exitX=0;exitY=0.5;exitDx=0;exitDy=0;" parent="1" source="8U288hd-d6_1_I51lwPs-40" target="8U288hd-d6_1_I51lwPs-26" edge="1">
          <mxGeometry relative="1" as="geometry" />
        </mxCell>
        <mxCell id="8U288hd-d6_1_I51lwPs-40" value="Delete employee" style="ellipse;whiteSpace=wrap;html=1;" parent="1" vertex="1">
          <mxGeometry x="250" y="450" width="90" height="40" as="geometry" />
        </mxCell>
        <mxCell id="8U288hd-d6_1_I51lwPs-41" value="Delete manager" style="ellipse;whiteSpace=wrap;html=1;" parent="1" vertex="1">
          <mxGeometry x="530" y="430" width="90" height="60" as="geometry" />
        </mxCell>
        <mxCell id="8U288hd-d6_1_I51lwPs-42" value="" style="endArrow=none;dashed=1;html=1;dashPattern=1 3;strokeWidth=2;rounded=0;labelBackgroundColor=default;strokeColor=default;align=center;verticalAlign=middle;fontFamily=Helvetica;fontSize=11;fontColor=default;shape=connector;exitX=1;exitY=0.5;exitDx=0;exitDy=0;entryX=0;entryY=0.5;entryDx=0;entryDy=0;startArrow=openThin;startFill=0;" parent="1" target="8U288hd-d6_1_I51lwPs-41" edge="1">
          <mxGeometry width="50" height="50" relative="1" as="geometry">
            <mxPoint x="340" y="470" as="sourcePoint" />
            <mxPoint x="330" y="400" as="targetPoint" />
          </mxGeometry>
        </mxCell>
        <mxCell id="8U288hd-d6_1_I51lwPs-43" value="&amp;lt;&amp;lt;include&amp;gt;&amp;gt;" style="text;html=1;strokeColor=none;fillColor=none;align=center;verticalAlign=middle;whiteSpace=wrap;rounded=0;" parent="1" vertex="1">
          <mxGeometry x="390" y="440" width="60" height="30" as="geometry" />
        </mxCell>
        <mxCell id="8U288hd-d6_1_I51lwPs-44" value="Delete&lt;br&gt;&amp;nbsp;delivery staff" style="ellipse;whiteSpace=wrap;html=1;" parent="1" vertex="1">
          <mxGeometry x="630" y="510" width="100" height="50" as="geometry" />
        </mxCell>
        <mxCell id="8U288hd-d6_1_I51lwPs-45" value="" style="endArrow=none;dashed=1;html=1;dashPattern=1 3;strokeWidth=2;rounded=0;labelBackgroundColor=default;strokeColor=default;align=center;verticalAlign=middle;fontFamily=Helvetica;fontSize=11;fontColor=default;shape=connector;entryX=0;entryY=0.5;entryDx=0;entryDy=0;startArrow=openThin;startFill=0;exitX=1;exitY=1;exitDx=0;exitDy=0;" parent="1" source="8U288hd-d6_1_I51lwPs-40" edge="1">
          <mxGeometry width="50" height="50" relative="1" as="geometry">
            <mxPoint x="470" y="500" as="sourcePoint" />
            <mxPoint x="630" y="530" as="targetPoint" />
          </mxGeometry>
        </mxCell>
        <mxCell id="8U288hd-d6_1_I51lwPs-46" value="&amp;lt;&amp;lt;include&amp;gt;&amp;gt;" style="text;html=1;strokeColor=none;fillColor=none;align=center;verticalAlign=middle;whiteSpace=wrap;rounded=0;" parent="1" vertex="1">
          <mxGeometry x="470" y="480" width="60" height="30" as="geometry" />
        </mxCell>
        <mxCell id="8U288hd-d6_1_I51lwPs-47" style="edgeStyle=none;shape=connector;rounded=0;orthogonalLoop=1;jettySize=auto;html=1;entryX=0.5;entryY=0.5;entryDx=0;entryDy=0;entryPerimeter=0;labelBackgroundColor=default;strokeColor=default;align=center;verticalAlign=middle;fontFamily=Helvetica;fontSize=11;fontColor=default;endArrow=none;endFill=0;exitX=0;exitY=0.5;exitDx=0;exitDy=0;" parent="1" source="8U288hd-d6_1_I51lwPs-27" target="8U288hd-d6_1_I51lwPs-26" edge="1">
          <mxGeometry relative="1" as="geometry" />
        </mxCell>
        <mxCell id="8U288hd-d6_1_I51lwPs-49" value="View employee information" style="ellipse;whiteSpace=wrap;html=1;" parent="1" vertex="1">
          <mxGeometry x="250" y="540" width="100" height="60" as="geometry" />
        </mxCell>
        <mxCell id="8U288hd-d6_1_I51lwPs-50" style="edgeStyle=none;shape=connector;rounded=0;orthogonalLoop=1;jettySize=auto;html=1;entryX=0.5;entryY=0.5;entryDx=0;entryDy=0;entryPerimeter=0;labelBackgroundColor=default;strokeColor=default;align=center;verticalAlign=middle;fontFamily=Helvetica;fontSize=11;fontColor=default;endArrow=none;endFill=0;exitX=0;exitY=0.5;exitDx=0;exitDy=0;" parent="1" source="8U288hd-d6_1_I51lwPs-49" target="8U288hd-d6_1_I51lwPs-26" edge="1">
          <mxGeometry relative="1" as="geometry" />
        </mxCell>
        <mxCell id="8U288hd-d6_1_I51lwPs-51" value="Update Item Details&lt;br&gt;" style="ellipse;whiteSpace=wrap;html=1;" parent="1" vertex="1">
          <mxGeometry x="250" y="630" width="100" height="60" as="geometry" />
        </mxCell>
        <mxCell id="8U288hd-d6_1_I51lwPs-52" style="edgeStyle=none;shape=connector;rounded=0;orthogonalLoop=1;jettySize=auto;html=1;entryX=0.5;entryY=0.5;entryDx=0;entryDy=0;entryPerimeter=0;labelBackgroundColor=default;strokeColor=default;align=center;verticalAlign=middle;fontFamily=Helvetica;fontSize=11;fontColor=default;endArrow=none;endFill=0;" parent="1" source="8U288hd-d6_1_I51lwPs-51" target="8U288hd-d6_1_I51lwPs-26" edge="1">
          <mxGeometry relative="1" as="geometry" />
        </mxCell>
        <mxCell id="8U288hd-d6_1_I51lwPs-53" value="View Delivery details" style="ellipse;whiteSpace=wrap;html=1;" parent="1" vertex="1">
          <mxGeometry x="250" y="730" width="110" height="60" as="geometry" />
        </mxCell>
        <mxCell id="8U288hd-d6_1_I51lwPs-54" style="edgeStyle=none;shape=connector;rounded=0;orthogonalLoop=1;jettySize=auto;html=1;entryX=0.5;entryY=0.5;entryDx=0;entryDy=0;entryPerimeter=0;labelBackgroundColor=default;strokeColor=default;align=center;verticalAlign=middle;fontFamily=Helvetica;fontSize=11;fontColor=default;endArrow=none;endFill=0;exitX=0;exitY=0.5;exitDx=0;exitDy=0;" parent="1" source="8U288hd-d6_1_I51lwPs-53" target="8U288hd-d6_1_I51lwPs-26" edge="1">
          <mxGeometry relative="1" as="geometry" />
        </mxCell>
        <mxCell id="8U288hd-d6_1_I51lwPs-56" value="View Delivery Feedback" style="ellipse;whiteSpace=wrap;html=1;" parent="1" vertex="1">
          <mxGeometry x="250" y="820" width="110" height="60" as="geometry" />
        </mxCell>
        <mxCell id="8U288hd-d6_1_I51lwPs-57" style="edgeStyle=none;shape=connector;rounded=0;orthogonalLoop=1;jettySize=auto;html=1;entryX=0.5;entryY=0.5;entryDx=0;entryDy=0;entryPerimeter=0;labelBackgroundColor=default;strokeColor=default;align=center;verticalAlign=middle;fontFamily=Helvetica;fontSize=11;fontColor=default;endArrow=none;endFill=0;exitX=0;exitY=0.5;exitDx=0;exitDy=0;" parent="1" source="8U288hd-d6_1_I51lwPs-56" target="8U288hd-d6_1_I51lwPs-26" edge="1">
          <mxGeometry relative="1" as="geometry" />
        </mxCell>
        <mxCell id="8U288hd-d6_1_I51lwPs-59" style="edgeStyle=none;shape=connector;rounded=0;orthogonalLoop=1;jettySize=auto;html=1;labelBackgroundColor=default;strokeColor=default;align=center;verticalAlign=middle;fontFamily=Helvetica;fontSize=11;fontColor=default;endArrow=none;endFill=0;entryX=0.5;entryY=0.5;entryDx=0;entryDy=0;entryPerimeter=0;exitX=0;exitY=0.5;exitDx=0;exitDy=0;" parent="1" source="8U288hd-d6_1_I51lwPs-58" target="8U288hd-d6_1_I51lwPs-26" edge="1">
          <mxGeometry relative="1" as="geometry" />
        </mxCell>
        <mxCell id="8U288hd-d6_1_I51lwPs-58" value="View Row Material Details" style="ellipse;whiteSpace=wrap;html=1;" parent="1" vertex="1">
          <mxGeometry x="250" y="910" width="120" height="70" as="geometry" />
        </mxCell>
        <mxCell id="8U288hd-d6_1_I51lwPs-60" value="Generate reports" style="ellipse;whiteSpace=wrap;html=1;" parent="1" vertex="1">
          <mxGeometry x="250" y="1020" width="120" height="70" as="geometry" />
        </mxCell>
        <mxCell id="8U288hd-d6_1_I51lwPs-61" style="edgeStyle=none;shape=connector;rounded=0;orthogonalLoop=1;jettySize=auto;html=1;entryX=0.5;entryY=0.5;entryDx=0;entryDy=0;entryPerimeter=0;labelBackgroundColor=default;strokeColor=default;align=center;verticalAlign=middle;fontFamily=Helvetica;fontSize=11;fontColor=default;endArrow=none;endFill=0;exitX=0;exitY=0.5;exitDx=0;exitDy=0;" parent="1" source="8U288hd-d6_1_I51lwPs-60" target="8U288hd-d6_1_I51lwPs-26" edge="1">
          <mxGeometry relative="1" as="geometry" />
        </mxCell>
        <mxCell id="8U288hd-d6_1_I51lwPs-62" value="generate Monthly report" style="ellipse;whiteSpace=wrap;html=1;" parent="1" vertex="1">
          <mxGeometry x="480" y="1030" width="110" height="70" as="geometry" />
        </mxCell>
        <mxCell id="8U288hd-d6_1_I51lwPs-63" value="" style="endArrow=none;dashed=1;html=1;dashPattern=1 3;strokeWidth=2;rounded=0;labelBackgroundColor=default;strokeColor=default;align=center;verticalAlign=middle;fontFamily=Helvetica;fontSize=11;fontColor=default;shape=connector;exitX=1;exitY=0.5;exitDx=0;exitDy=0;entryX=0;entryY=0.5;entryDx=0;entryDy=0;startArrow=openThin;startFill=0;" parent="1" target="8U288hd-d6_1_I51lwPs-62" edge="1">
          <mxGeometry width="50" height="50" relative="1" as="geometry">
            <mxPoint x="370" y="1060" as="sourcePoint" />
            <mxPoint x="350" y="990" as="targetPoint" />
          </mxGeometry>
        </mxCell>
        <mxCell id="8U288hd-d6_1_I51lwPs-64" value="&amp;lt;&amp;lt;extendends&amp;gt;&amp;gt;" style="text;html=1;strokeColor=none;fillColor=none;align=center;verticalAlign=middle;whiteSpace=wrap;rounded=0;" parent="1" vertex="1">
          <mxGeometry x="410" y="1030" width="60" height="30" as="geometry" />
        </mxCell>
        <mxCell id="8U288hd-d6_1_I51lwPs-67" value="Income Report" style="ellipse;whiteSpace=wrap;html=1;" parent="1" vertex="1">
          <mxGeometry x="730" y="1030" width="100" height="50" as="geometry" />
        </mxCell>
        <mxCell id="8U288hd-d6_1_I51lwPs-68" value="" style="endArrow=none;dashed=1;html=1;dashPattern=1 3;strokeWidth=2;rounded=0;labelBackgroundColor=default;strokeColor=default;align=center;verticalAlign=middle;fontFamily=Helvetica;fontSize=11;fontColor=default;shape=connector;exitX=1;exitY=0.5;exitDx=0;exitDy=0;entryX=0;entryY=0.5;entryDx=0;entryDy=0;startArrow=openThin;startFill=0;" parent="1" target="8U288hd-d6_1_I51lwPs-67" edge="1">
          <mxGeometry width="50" height="50" relative="1" as="geometry">
            <mxPoint x="590" y="1060" as="sourcePoint" />
            <mxPoint x="570" y="990" as="targetPoint" />
          </mxGeometry>
        </mxCell>
        <mxCell id="8U288hd-d6_1_I51lwPs-69" value="&amp;lt;&amp;lt;include&amp;gt;&amp;gt;" style="text;html=1;strokeColor=none;fillColor=none;align=center;verticalAlign=middle;whiteSpace=wrap;rounded=0;" parent="1" vertex="1">
          <mxGeometry x="630" y="1030" width="60" height="30" as="geometry" />
        </mxCell>
        <mxCell id="8U288hd-d6_1_I51lwPs-70" value="Item Report" style="ellipse;whiteSpace=wrap;html=1;" parent="1" vertex="1">
          <mxGeometry x="730" y="1110" width="100" height="50" as="geometry" />
        </mxCell>
        <mxCell id="8U288hd-d6_1_I51lwPs-71" value="" style="endArrow=none;dashed=1;html=1;dashPattern=1 3;strokeWidth=2;rounded=0;labelBackgroundColor=default;strokeColor=default;align=center;verticalAlign=middle;fontFamily=Helvetica;fontSize=11;fontColor=default;shape=connector;entryX=0;entryY=0.5;entryDx=0;entryDy=0;startArrow=openThin;startFill=0;" parent="1" source="8U288hd-d6_1_I51lwPs-62" target="8U288hd-d6_1_I51lwPs-70" edge="1">
          <mxGeometry width="50" height="50" relative="1" as="geometry">
            <mxPoint x="590" y="1140" as="sourcePoint" />
            <mxPoint x="570" y="1070" as="targetPoint" />
          </mxGeometry>
        </mxCell>
        <mxCell id="8U288hd-d6_1_I51lwPs-72" value="&amp;lt;&amp;lt;include&amp;gt;&amp;gt;" style="text;html=1;strokeColor=none;fillColor=none;align=center;verticalAlign=middle;whiteSpace=wrap;rounded=0;" parent="1" vertex="1">
          <mxGeometry x="630" y="1110" width="60" height="30" as="geometry" />
        </mxCell>
        <mxCell id="8U288hd-d6_1_I51lwPs-74" value="&lt;b&gt;Managers&lt;br&gt;&lt;/b&gt;" style="shape=umlActor;verticalLabelPosition=bottom;verticalAlign=top;html=1;outlineConnect=0;" parent="1" vertex="1">
          <mxGeometry x="40" y="1380" width="30" height="60" as="geometry" />
        </mxCell>
        <mxCell id="8U288hd-d6_1_I51lwPs-75" value="Row Material handlling" style="ellipse;whiteSpace=wrap;html=1;" parent="1" vertex="1">
          <mxGeometry x="250" y="1200" width="120" height="70" as="geometry" />
        </mxCell>
        <mxCell id="8U288hd-d6_1_I51lwPs-76" style="edgeStyle=none;shape=connector;rounded=0;orthogonalLoop=1;jettySize=auto;html=1;entryX=0.5;entryY=0.5;entryDx=0;entryDy=0;entryPerimeter=0;labelBackgroundColor=default;strokeColor=default;align=center;verticalAlign=middle;fontFamily=Helvetica;fontSize=11;fontColor=default;endArrow=none;endFill=0;exitX=0;exitY=0.5;exitDx=0;exitDy=0;" parent="1" source="8U288hd-d6_1_I51lwPs-75" target="8U288hd-d6_1_I51lwPs-74" edge="1">
          <mxGeometry relative="1" as="geometry" />
        </mxCell>
        <mxCell id="8U288hd-d6_1_I51lwPs-77" value="View Order" style="ellipse;whiteSpace=wrap;html=1;" parent="1" vertex="1">
          <mxGeometry x="250" y="1300" width="120" height="70" as="geometry" />
        </mxCell>
        <mxCell id="8U288hd-d6_1_I51lwPs-78" value="Accept Order" style="ellipse;whiteSpace=wrap;html=1;" parent="1" vertex="1">
          <mxGeometry x="250" y="1400" width="120" height="70" as="geometry" />
        </mxCell>
        <mxCell id="8U288hd-d6_1_I51lwPs-79" value="Update Order Status" style="ellipse;whiteSpace=wrap;html=1;" parent="1" vertex="1">
          <mxGeometry x="510" y="1410" width="120" height="60" as="geometry" />
        </mxCell>
        <mxCell id="8U288hd-d6_1_I51lwPs-80" value="" style="endArrow=none;dashed=1;html=1;dashPattern=1 3;strokeWidth=2;rounded=0;labelBackgroundColor=default;strokeColor=default;align=center;verticalAlign=middle;fontFamily=Helvetica;fontSize=11;fontColor=default;shape=connector;exitX=1;exitY=0.5;exitDx=0;exitDy=0;entryX=0;entryY=0.5;entryDx=0;entryDy=0;startArrow=openThin;startFill=0;" parent="1" target="8U288hd-d6_1_I51lwPs-79" edge="1">
          <mxGeometry width="50" height="50" relative="1" as="geometry">
            <mxPoint x="370" y="1440" as="sourcePoint" />
            <mxPoint x="350" y="1370" as="targetPoint" />
          </mxGeometry>
        </mxCell>
        <mxCell id="8U288hd-d6_1_I51lwPs-81" value="&amp;lt;&amp;lt;include&amp;gt;&amp;gt;" style="text;html=1;strokeColor=none;fillColor=none;align=center;verticalAlign=middle;whiteSpace=wrap;rounded=0;" parent="1" vertex="1">
          <mxGeometry x="410" y="1410" width="60" height="30" as="geometry" />
        </mxCell>
        <mxCell id="8U288hd-d6_1_I51lwPs-88" style="edgeStyle=none;shape=connector;rounded=0;orthogonalLoop=1;jettySize=auto;html=1;labelBackgroundColor=default;strokeColor=default;align=center;verticalAlign=middle;fontFamily=Helvetica;fontSize=11;fontColor=default;endArrow=none;endFill=0;entryX=0.5;entryY=0.5;entryDx=0;entryDy=0;entryPerimeter=0;exitX=0;exitY=0.5;exitDx=0;exitDy=0;" parent="1" source="8U288hd-d6_1_I51lwPs-82" target="8U288hd-d6_1_I51lwPs-74" edge="1">
          <mxGeometry relative="1" as="geometry">
            <mxPoint x="130" y="1480" as="targetPoint" />
          </mxGeometry>
        </mxCell>
        <mxCell id="8U288hd-d6_1_I51lwPs-82" value="Cancel Order" style="ellipse;whiteSpace=wrap;html=1;" parent="1" vertex="1">
          <mxGeometry x="250" y="1500" width="120" height="70" as="geometry" />
        </mxCell>
        <mxCell id="8U288hd-d6_1_I51lwPs-83" value="Reason of Cancelation&amp;nbsp;" style="ellipse;whiteSpace=wrap;html=1;" parent="1" vertex="1">
          <mxGeometry x="510" y="1510" width="120" height="60" as="geometry" />
        </mxCell>
        <mxCell id="8U288hd-d6_1_I51lwPs-84" value="" style="endArrow=none;dashed=1;html=1;dashPattern=1 3;strokeWidth=2;rounded=0;labelBackgroundColor=default;strokeColor=default;align=center;verticalAlign=middle;fontFamily=Helvetica;fontSize=11;fontColor=default;shape=connector;exitX=1;exitY=0.5;exitDx=0;exitDy=0;entryX=0;entryY=0.5;entryDx=0;entryDy=0;startArrow=openThin;startFill=0;" parent="1" target="8U288hd-d6_1_I51lwPs-83" edge="1">
          <mxGeometry width="50" height="50" relative="1" as="geometry">
            <mxPoint x="370" y="1540" as="sourcePoint" />
            <mxPoint x="350" y="1470" as="targetPoint" />
          </mxGeometry>
        </mxCell>
        <mxCell id="8U288hd-d6_1_I51lwPs-85" value="&amp;lt;&amp;lt;include&amp;gt;&amp;gt;" style="text;html=1;strokeColor=none;fillColor=none;align=center;verticalAlign=middle;whiteSpace=wrap;rounded=0;" parent="1" vertex="1">
          <mxGeometry x="410" y="1510" width="60" height="30" as="geometry" />
        </mxCell>
        <mxCell id="8U288hd-d6_1_I51lwPs-86" style="edgeStyle=none;shape=connector;rounded=0;orthogonalLoop=1;jettySize=auto;html=1;entryX=0.5;entryY=0.5;entryDx=0;entryDy=0;entryPerimeter=0;labelBackgroundColor=default;strokeColor=default;align=center;verticalAlign=middle;fontFamily=Helvetica;fontSize=11;fontColor=default;endArrow=none;endFill=0;exitX=0;exitY=0.5;exitDx=0;exitDy=0;" parent="1" source="8U288hd-d6_1_I51lwPs-77" target="8U288hd-d6_1_I51lwPs-74" edge="1">
          <mxGeometry relative="1" as="geometry" />
        </mxCell>
        <mxCell id="8U288hd-d6_1_I51lwPs-87" style="edgeStyle=none;shape=connector;rounded=0;orthogonalLoop=1;jettySize=auto;html=1;entryX=0.5;entryY=0.5;entryDx=0;entryDy=0;entryPerimeter=0;labelBackgroundColor=default;strokeColor=default;align=center;verticalAlign=middle;fontFamily=Helvetica;fontSize=11;fontColor=default;endArrow=none;endFill=0;exitX=0;exitY=0.5;exitDx=0;exitDy=0;" parent="1" source="8U288hd-d6_1_I51lwPs-78" target="8U288hd-d6_1_I51lwPs-74" edge="1">
          <mxGeometry relative="1" as="geometry" />
        </mxCell>
        <mxCell id="8U288hd-d6_1_I51lwPs-89" value="View Customer Information" style="ellipse;whiteSpace=wrap;html=1;" parent="1" vertex="1">
          <mxGeometry x="250" y="1600" width="120" height="70" as="geometry" />
        </mxCell>
        <mxCell id="8U288hd-d6_1_I51lwPs-90" style="edgeStyle=none;shape=connector;rounded=0;orthogonalLoop=1;jettySize=auto;html=1;entryX=0.5;entryY=0.5;entryDx=0;entryDy=0;entryPerimeter=0;labelBackgroundColor=default;strokeColor=default;align=center;verticalAlign=middle;fontFamily=Helvetica;fontSize=11;fontColor=default;endArrow=none;endFill=0;exitX=0;exitY=0.5;exitDx=0;exitDy=0;" parent="1" source="8U288hd-d6_1_I51lwPs-89" target="8U288hd-d6_1_I51lwPs-74" edge="1">
          <mxGeometry relative="1" as="geometry" />
        </mxCell>
        <mxCell id="8U288hd-d6_1_I51lwPs-91" value="&lt;b&gt;Customer&lt;br&gt;&lt;/b&gt;" style="shape=umlActor;verticalLabelPosition=bottom;verticalAlign=top;html=1;outlineConnect=0;" parent="1" vertex="1">
          <mxGeometry x="20" y="2270" width="30" height="60" as="geometry" />
        </mxCell>
        <mxCell id="8U288hd-d6_1_I51lwPs-92" value="Regeistration" style="ellipse;whiteSpace=wrap;html=1;" parent="1" vertex="1">
          <mxGeometry x="250" y="1760" width="120" height="70" as="geometry" />
        </mxCell>
        <mxCell id="8U288hd-d6_1_I51lwPs-94" value="Email Verification" style="ellipse;whiteSpace=wrap;html=1;" parent="1" vertex="1">
          <mxGeometry x="655" y="1770" width="100" height="50" as="geometry" />
        </mxCell>
        <mxCell id="8U288hd-d6_1_I51lwPs-96" value="&amp;lt;&amp;lt;include&amp;gt;&amp;gt;" style="text;html=1;strokeColor=none;fillColor=none;align=center;verticalAlign=middle;whiteSpace=wrap;rounded=0;" parent="1" vertex="1">
          <mxGeometry x="535" y="1770" width="60" height="30" as="geometry" />
        </mxCell>
        <mxCell id="8U288hd-d6_1_I51lwPs-97" value="" style="endArrow=none;dashed=1;html=1;dashPattern=1 3;strokeWidth=2;rounded=0;labelBackgroundColor=default;strokeColor=default;align=center;verticalAlign=middle;fontFamily=Helvetica;fontSize=11;fontColor=default;shape=connector;entryX=0;entryY=0.5;entryDx=0;entryDy=0;exitX=1;exitY=0.5;exitDx=0;exitDy=0;startArrow=openThin;startFill=0;" parent="1" source="8U288hd-d6_1_I51lwPs-92" target="8U288hd-d6_1_I51lwPs-94" edge="1">
          <mxGeometry width="50" height="50" relative="1" as="geometry">
            <mxPoint x="395" y="2000" as="sourcePoint" />
            <mxPoint x="445" y="1950" as="targetPoint" />
          </mxGeometry>
        </mxCell>
        <mxCell id="8U288hd-d6_1_I51lwPs-98" style="edgeStyle=none;shape=connector;rounded=0;orthogonalLoop=1;jettySize=auto;html=1;entryX=0.5;entryY=0.5;entryDx=0;entryDy=0;entryPerimeter=0;labelBackgroundColor=default;strokeColor=default;align=center;verticalAlign=middle;fontFamily=Helvetica;fontSize=11;fontColor=default;endArrow=none;endFill=0;exitX=0;exitY=0.5;exitDx=0;exitDy=0;" parent="1" source="8U288hd-d6_1_I51lwPs-92" target="8U288hd-d6_1_I51lwPs-91" edge="1">
          <mxGeometry relative="1" as="geometry" />
        </mxCell>
        <mxCell id="8U288hd-d6_1_I51lwPs-99" value="View Items" style="ellipse;whiteSpace=wrap;html=1;" parent="1" vertex="1">
          <mxGeometry x="250" y="1880" width="120" height="70" as="geometry" />
        </mxCell>
        <mxCell id="8U288hd-d6_1_I51lwPs-100" style="edgeStyle=none;shape=connector;rounded=0;orthogonalLoop=1;jettySize=auto;html=1;entryX=0.5;entryY=0.5;entryDx=0;entryDy=0;entryPerimeter=0;labelBackgroundColor=default;strokeColor=default;align=center;verticalAlign=middle;fontFamily=Helvetica;fontSize=11;fontColor=default;endArrow=none;endFill=0;exitX=0;exitY=0.5;exitDx=0;exitDy=0;" parent="1" source="8U288hd-d6_1_I51lwPs-99" target="8U288hd-d6_1_I51lwPs-91" edge="1">
          <mxGeometry relative="1" as="geometry" />
        </mxCell>
        <mxCell id="8U288hd-d6_1_I51lwPs-101" value="Search Items" style="ellipse;whiteSpace=wrap;html=1;" parent="1" vertex="1">
          <mxGeometry x="250" y="1980" width="120" height="70" as="geometry" />
        </mxCell>
        <mxCell id="8U288hd-d6_1_I51lwPs-102" style="edgeStyle=none;shape=connector;rounded=0;orthogonalLoop=1;jettySize=auto;html=1;entryX=0.5;entryY=0.5;entryDx=0;entryDy=0;entryPerimeter=0;labelBackgroundColor=default;strokeColor=default;align=center;verticalAlign=middle;fontFamily=Helvetica;fontSize=11;fontColor=default;endArrow=none;endFill=0;exitX=0;exitY=0.5;exitDx=0;exitDy=0;" parent="1" source="8U288hd-d6_1_I51lwPs-101" target="8U288hd-d6_1_I51lwPs-91" edge="1">
          <mxGeometry relative="1" as="geometry" />
        </mxCell>
        <mxCell id="8U288hd-d6_1_I51lwPs-103" value="Add items to cart" style="ellipse;whiteSpace=wrap;html=1;" parent="1" vertex="1">
          <mxGeometry x="250" y="2080" width="120" height="70" as="geometry" />
        </mxCell>
        <mxCell id="8U288hd-d6_1_I51lwPs-104" value="Place online order" style="ellipse;whiteSpace=wrap;html=1;" parent="1" vertex="1">
          <mxGeometry x="250" y="2200" width="120" height="70" as="geometry" />
        </mxCell>
        <mxCell id="8U288hd-d6_1_I51lwPs-105" style="edgeStyle=none;shape=connector;rounded=0;orthogonalLoop=1;jettySize=auto;html=1;entryX=0.5;entryY=0.5;entryDx=0;entryDy=0;entryPerimeter=0;labelBackgroundColor=default;strokeColor=default;align=center;verticalAlign=middle;fontFamily=Helvetica;fontSize=11;fontColor=default;endArrow=none;endFill=0;exitX=0;exitY=0.5;exitDx=0;exitDy=0;" parent="1" source="8U288hd-d6_1_I51lwPs-104" target="8U288hd-d6_1_I51lwPs-91" edge="1">
          <mxGeometry relative="1" as="geometry" />
        </mxCell>
        <mxCell id="8U288hd-d6_1_I51lwPs-106" style="edgeStyle=none;shape=connector;rounded=0;orthogonalLoop=1;jettySize=auto;html=1;entryX=0.5;entryY=0.5;entryDx=0;entryDy=0;entryPerimeter=0;labelBackgroundColor=default;strokeColor=default;align=center;verticalAlign=middle;fontFamily=Helvetica;fontSize=11;fontColor=default;endArrow=none;endFill=0;exitX=0;exitY=0.5;exitDx=0;exitDy=0;" parent="1" source="8U288hd-d6_1_I51lwPs-103" target="8U288hd-d6_1_I51lwPs-91" edge="1">
          <mxGeometry relative="1" as="geometry" />
        </mxCell>
        <mxCell id="8U288hd-d6_1_I51lwPs-107" value="Place delivery order" style="ellipse;whiteSpace=wrap;html=1;" parent="1" vertex="1">
          <mxGeometry x="460" y="2190" width="120" height="70" as="geometry" />
        </mxCell>
        <mxCell id="8U288hd-d6_1_I51lwPs-110" style="edgeStyle=none;shape=connector;rounded=0;orthogonalLoop=1;jettySize=auto;html=1;labelBackgroundColor=default;strokeColor=default;align=center;verticalAlign=middle;fontFamily=Helvetica;fontSize=11;fontColor=default;endArrow=openThin;endFill=0;startArrow=none;startFill=0;exitX=0;exitY=0.5;exitDx=0;exitDy=0;" parent="1" source="8U288hd-d6_1_I51lwPs-108" target="8U288hd-d6_1_I51lwPs-104" edge="1">
          <mxGeometry relative="1" as="geometry" />
        </mxCell>
        <mxCell id="8U288hd-d6_1_I51lwPs-108" value="Place pickup order" style="ellipse;whiteSpace=wrap;html=1;" parent="1" vertex="1">
          <mxGeometry x="460" y="2300" width="120" height="70" as="geometry" />
        </mxCell>
        <mxCell id="8U288hd-d6_1_I51lwPs-109" value="" style="endArrow=none;html=1;rounded=0;labelBackgroundColor=default;strokeColor=default;align=center;verticalAlign=middle;fontFamily=Helvetica;fontSize=11;fontColor=default;shape=connector;entryX=0;entryY=0.5;entryDx=0;entryDy=0;exitX=0.992;exitY=0.424;exitDx=0;exitDy=0;exitPerimeter=0;startArrow=openThin;startFill=0;" parent="1" source="8U288hd-d6_1_I51lwPs-104" target="8U288hd-d6_1_I51lwPs-107" edge="1">
          <mxGeometry width="50" height="50" relative="1" as="geometry">
            <mxPoint x="470" y="2510" as="sourcePoint" />
            <mxPoint x="520" y="2460" as="targetPoint" />
          </mxGeometry>
        </mxCell>
        <mxCell id="8U288hd-d6_1_I51lwPs-111" value="Select payment method" style="ellipse;whiteSpace=wrap;html=1;" parent="1" vertex="1">
          <mxGeometry x="660" y="2240" width="120" height="70" as="geometry" />
        </mxCell>
        <mxCell id="8U288hd-d6_1_I51lwPs-112" value="" style="endArrow=openThin;dashed=1;html=1;dashPattern=1 3;strokeWidth=2;rounded=0;labelBackgroundColor=default;strokeColor=default;align=center;verticalAlign=middle;fontFamily=Helvetica;fontSize=11;fontColor=default;shape=connector;exitX=1;exitY=0.5;exitDx=0;exitDy=0;entryX=0;entryY=0;entryDx=0;entryDy=0;endFill=0;" parent="1" source="8U288hd-d6_1_I51lwPs-107" target="8U288hd-d6_1_I51lwPs-111" edge="1">
          <mxGeometry width="50" height="50" relative="1" as="geometry">
            <mxPoint x="740" y="2510" as="sourcePoint" />
            <mxPoint x="790" y="2460" as="targetPoint" />
          </mxGeometry>
        </mxCell>
        <mxCell id="8U288hd-d6_1_I51lwPs-113" value="" style="endArrow=openThin;dashed=1;html=1;dashPattern=1 3;strokeWidth=2;rounded=0;labelBackgroundColor=default;strokeColor=default;align=center;verticalAlign=middle;fontFamily=Helvetica;fontSize=11;fontColor=default;shape=connector;exitX=1;exitY=0.5;exitDx=0;exitDy=0;entryX=0;entryY=1;entryDx=0;entryDy=0;endFill=0;" parent="1" source="8U288hd-d6_1_I51lwPs-108" target="8U288hd-d6_1_I51lwPs-111" edge="1">
          <mxGeometry width="50" height="50" relative="1" as="geometry">
            <mxPoint x="605" y="2415" as="sourcePoint" />
            <mxPoint x="707" y="2430" as="targetPoint" />
          </mxGeometry>
        </mxCell>
        <mxCell id="8U288hd-d6_1_I51lwPs-114" value="&amp;lt;&amp;lt;include&amp;gt;&amp;gt;" style="text;html=1;strokeColor=none;fillColor=none;align=center;verticalAlign=middle;whiteSpace=wrap;rounded=0;" parent="1" vertex="1">
          <mxGeometry x="600" y="2210" width="60" height="30" as="geometry" />
        </mxCell>
        <mxCell id="8U288hd-d6_1_I51lwPs-115" value="&amp;lt;&amp;lt;include&amp;gt;&amp;gt;" style="text;html=1;strokeColor=none;fillColor=none;align=center;verticalAlign=middle;whiteSpace=wrap;rounded=0;" parent="1" vertex="1">
          <mxGeometry x="585" y="2285" width="60" height="30" as="geometry" />
        </mxCell>
        <mxCell id="8U288hd-d6_1_I51lwPs-116" value="Mention Delivery Address" style="ellipse;whiteSpace=wrap;html=1;" parent="1" vertex="1">
          <mxGeometry x="645" y="2090" width="120" height="70" as="geometry" />
        </mxCell>
        <mxCell id="8U288hd-d6_1_I51lwPs-123" value="" style="endArrow=openThin;dashed=1;html=1;dashPattern=1 3;strokeWidth=2;rounded=0;labelBackgroundColor=default;strokeColor=default;align=center;verticalAlign=middle;fontFamily=Helvetica;fontSize=11;fontColor=default;shape=connector;exitX=1;exitY=0;exitDx=0;exitDy=0;entryX=0;entryY=1;entryDx=0;entryDy=0;endFill=0;" parent="1" source="8U288hd-d6_1_I51lwPs-107" target="8U288hd-d6_1_I51lwPs-116" edge="1">
          <mxGeometry width="50" height="50" relative="1" as="geometry">
            <mxPoint x="578" y="2380" as="sourcePoint" />
            <mxPoint x="680" y="2395" as="targetPoint" />
            <Array as="points" />
          </mxGeometry>
        </mxCell>
        <mxCell id="8U288hd-d6_1_I51lwPs-124" value="&amp;lt;&amp;lt;include&amp;gt;&amp;gt;" style="text;html=1;strokeColor=none;fillColor=none;align=center;verticalAlign=middle;whiteSpace=wrap;rounded=0;" parent="1" vertex="1">
          <mxGeometry x="570" y="2150" width="60" height="30" as="geometry" />
        </mxCell>
        <mxCell id="8U288hd-d6_1_I51lwPs-125" value="Generate e-bill" style="ellipse;whiteSpace=wrap;html=1;" parent="1" vertex="1">
          <mxGeometry x="465" y="2430" width="120" height="70" as="geometry" />
        </mxCell>
        <mxCell id="8U288hd-d6_1_I51lwPs-128" value="" style="endArrow=openThin;dashed=1;html=1;dashPattern=1 3;strokeWidth=2;rounded=0;labelBackgroundColor=default;strokeColor=default;align=center;verticalAlign=middle;fontFamily=Helvetica;fontSize=11;fontColor=default;shape=connector;exitX=0.5;exitY=1;exitDx=0;exitDy=0;entryX=0;entryY=0.5;entryDx=0;entryDy=0;endFill=0;" parent="1" source="8U288hd-d6_1_I51lwPs-104" target="8U288hd-d6_1_I51lwPs-125" edge="1">
          <mxGeometry width="50" height="50" relative="1" as="geometry">
            <mxPoint x="480" y="2440" as="sourcePoint" />
            <mxPoint x="530" y="2390" as="targetPoint" />
          </mxGeometry>
        </mxCell>
        <mxCell id="8U288hd-d6_1_I51lwPs-129" value="&amp;lt;&amp;lt;include&amp;gt;&amp;gt;" style="text;html=1;strokeColor=none;fillColor=none;align=center;verticalAlign=middle;whiteSpace=wrap;rounded=0;" parent="1" vertex="1">
          <mxGeometry x="410" y="2370" width="60" height="30" as="geometry" />
        </mxCell>
        <mxCell id="8U288hd-d6_1_I51lwPs-130" value="View Order History" style="ellipse;whiteSpace=wrap;html=1;" parent="1" vertex="1">
          <mxGeometry x="250" y="2340" width="120" height="70" as="geometry" />
        </mxCell>
        <mxCell id="8U288hd-d6_1_I51lwPs-133" style="edgeStyle=none;shape=connector;rounded=0;orthogonalLoop=1;jettySize=auto;html=1;labelBackgroundColor=default;strokeColor=default;align=center;verticalAlign=middle;fontFamily=Helvetica;fontSize=11;fontColor=default;endArrow=none;endFill=0;entryX=0.5;entryY=0.5;entryDx=0;entryDy=0;entryPerimeter=0;exitX=0;exitY=0.5;exitDx=0;exitDy=0;" parent="1" source="8U288hd-d6_1_I51lwPs-131" target="8U288hd-d6_1_I51lwPs-91" edge="1">
          <mxGeometry relative="1" as="geometry">
            <mxPoint x="90" y="2179.9999999999995" as="targetPoint" />
          </mxGeometry>
        </mxCell>
        <mxCell id="8U288hd-d6_1_I51lwPs-131" value="Remove Items From The Cart" style="ellipse;whiteSpace=wrap;html=1;" parent="1" vertex="1">
          <mxGeometry x="250" y="2440" width="120" height="70" as="geometry" />
        </mxCell>
        <mxCell id="8U288hd-d6_1_I51lwPs-132" style="edgeStyle=none;shape=connector;rounded=0;orthogonalLoop=1;jettySize=auto;html=1;entryX=0.5;entryY=0.5;entryDx=0;entryDy=0;entryPerimeter=0;labelBackgroundColor=default;strokeColor=default;align=center;verticalAlign=middle;fontFamily=Helvetica;fontSize=11;fontColor=default;endArrow=none;endFill=0;exitX=0;exitY=0.5;exitDx=0;exitDy=0;" parent="1" source="8U288hd-d6_1_I51lwPs-130" target="8U288hd-d6_1_I51lwPs-91" edge="1">
          <mxGeometry relative="1" as="geometry" />
        </mxCell>
        <mxCell id="8U288hd-d6_1_I51lwPs-136" style="edgeStyle=none;shape=connector;rounded=0;orthogonalLoop=1;jettySize=auto;html=1;labelBackgroundColor=default;strokeColor=default;align=center;verticalAlign=middle;fontFamily=Helvetica;fontSize=11;fontColor=default;endArrow=none;endFill=0;entryX=0.5;entryY=0.5;entryDx=0;entryDy=0;entryPerimeter=0;exitX=0;exitY=0.5;exitDx=0;exitDy=0;" parent="1" source="8U288hd-d6_1_I51lwPs-135" target="8U288hd-d6_1_I51lwPs-91" edge="1">
          <mxGeometry relative="1" as="geometry">
            <mxPoint x="80" y="2199.5652173913045" as="targetPoint" />
          </mxGeometry>
        </mxCell>
        <mxCell id="8U288hd-d6_1_I51lwPs-135" value="Give Feedback" style="ellipse;whiteSpace=wrap;html=1;" parent="1" vertex="1">
          <mxGeometry x="250" y="2540" width="120" height="70" as="geometry" />
        </mxCell>
        <mxCell id="8U288hd-d6_1_I51lwPs-137" value="Modify order quantity" style="ellipse;whiteSpace=wrap;html=1;" parent="1" vertex="1">
          <mxGeometry x="250" y="2650" width="120" height="70" as="geometry" />
        </mxCell>
        <mxCell id="8U288hd-d6_1_I51lwPs-138" style="edgeStyle=none;shape=connector;rounded=0;orthogonalLoop=1;jettySize=auto;html=1;entryX=0.5;entryY=0.5;entryDx=0;entryDy=0;entryPerimeter=0;labelBackgroundColor=default;strokeColor=default;align=center;verticalAlign=middle;fontFamily=Helvetica;fontSize=11;fontColor=default;endArrow=none;endFill=0;exitX=0;exitY=0.5;exitDx=0;exitDy=0;" parent="1" source="8U288hd-d6_1_I51lwPs-137" target="8U288hd-d6_1_I51lwPs-91" edge="1">
          <mxGeometry relative="1" as="geometry" />
        </mxCell>
        <mxCell id="8U288hd-d6_1_I51lwPs-139" value="Request to cancel order" style="ellipse;whiteSpace=wrap;html=1;" parent="1" vertex="1">
          <mxGeometry x="250" y="2760" width="120" height="70" as="geometry" />
        </mxCell>
        <mxCell id="8U288hd-d6_1_I51lwPs-140" style="edgeStyle=none;shape=connector;rounded=0;orthogonalLoop=1;jettySize=auto;html=1;entryX=0.5;entryY=0.5;entryDx=0;entryDy=0;entryPerimeter=0;labelBackgroundColor=default;strokeColor=default;align=center;verticalAlign=middle;fontFamily=Helvetica;fontSize=11;fontColor=default;endArrow=none;endFill=0;exitX=0;exitY=0.5;exitDx=0;exitDy=0;" parent="1" source="8U288hd-d6_1_I51lwPs-139" target="8U288hd-d6_1_I51lwPs-91" edge="1">
          <mxGeometry relative="1" as="geometry" />
        </mxCell>
        <mxCell id="8U288hd-d6_1_I51lwPs-141" value="Check order receiving time" style="ellipse;whiteSpace=wrap;html=1;" parent="1" vertex="1">
          <mxGeometry x="655" y="2770" width="100" height="50" as="geometry" />
        </mxCell>
        <mxCell id="8U288hd-d6_1_I51lwPs-142" value="&amp;lt;&amp;lt;include&amp;gt;&amp;gt;" style="text;html=1;strokeColor=none;fillColor=none;align=center;verticalAlign=middle;whiteSpace=wrap;rounded=0;" parent="1" vertex="1">
          <mxGeometry x="535" y="2770" width="60" height="30" as="geometry" />
        </mxCell>
        <mxCell id="8U288hd-d6_1_I51lwPs-143" value="" style="endArrow=none;dashed=1;html=1;dashPattern=1 3;strokeWidth=2;rounded=0;labelBackgroundColor=default;strokeColor=default;align=center;verticalAlign=middle;fontFamily=Helvetica;fontSize=11;fontColor=default;shape=connector;entryX=0;entryY=0.5;entryDx=0;entryDy=0;exitX=1;exitY=0.5;exitDx=0;exitDy=0;startArrow=openThin;startFill=0;" parent="1" target="8U288hd-d6_1_I51lwPs-141" edge="1">
          <mxGeometry width="50" height="50" relative="1" as="geometry">
            <mxPoint x="370" y="2795" as="sourcePoint" />
            <mxPoint x="445" y="2950" as="targetPoint" />
          </mxGeometry>
        </mxCell>
        <mxCell id="8U288hd-d6_1_I51lwPs-147" style="edgeStyle=none;shape=connector;rounded=0;orthogonalLoop=1;jettySize=auto;html=1;entryX=0;entryY=0.5;entryDx=0;entryDy=0;labelBackgroundColor=default;strokeColor=default;align=center;verticalAlign=middle;fontFamily=Helvetica;fontSize=11;fontColor=default;endArrow=none;endFill=0;startArrow=openThin;startFill=0;" parent="1" source="8U288hd-d6_1_I51lwPs-144" target="8U288hd-d6_1_I51lwPs-145" edge="1">
          <mxGeometry relative="1" as="geometry" />
        </mxCell>
        <mxCell id="8U288hd-d6_1_I51lwPs-148" style="edgeStyle=none;shape=connector;rounded=0;orthogonalLoop=1;jettySize=auto;html=1;exitX=1;exitY=1;exitDx=0;exitDy=0;entryX=0;entryY=0.5;entryDx=0;entryDy=0;labelBackgroundColor=default;strokeColor=default;align=center;verticalAlign=middle;fontFamily=Helvetica;fontSize=11;fontColor=default;endArrow=none;endFill=0;startArrow=openThin;startFill=0;" parent="1" source="8U288hd-d6_1_I51lwPs-144" target="8U288hd-d6_1_I51lwPs-146" edge="1">
          <mxGeometry relative="1" as="geometry" />
        </mxCell>
        <mxCell id="8U288hd-d6_1_I51lwPs-150" style="edgeStyle=none;shape=connector;rounded=0;orthogonalLoop=1;jettySize=auto;html=1;labelBackgroundColor=default;strokeColor=default;align=center;verticalAlign=middle;fontFamily=Helvetica;fontSize=11;fontColor=default;endArrow=none;endFill=0;exitX=0;exitY=0.5;exitDx=0;exitDy=0;entryX=0.5;entryY=0.5;entryDx=0;entryDy=0;entryPerimeter=0;" parent="1" source="8U288hd-d6_1_I51lwPs-144" target="8U288hd-d6_1_I51lwPs-91" edge="1">
          <mxGeometry relative="1" as="geometry" />
        </mxCell>
        <mxCell id="8U288hd-d6_1_I51lwPs-144" value="Make payment" style="ellipse;whiteSpace=wrap;html=1;" parent="1" vertex="1">
          <mxGeometry x="250" y="2870" width="120" height="70" as="geometry" />
        </mxCell>
        <mxCell id="8U288hd-d6_1_I51lwPs-145" value="Card Payment" style="ellipse;whiteSpace=wrap;html=1;" parent="1" vertex="1">
          <mxGeometry x="480" y="2850" width="120" height="70" as="geometry" />
        </mxCell>
        <mxCell id="8U288hd-d6_1_I51lwPs-146" value="Cash Payment" style="ellipse;whiteSpace=wrap;html=1;" parent="1" vertex="1">
          <mxGeometry x="480" y="2940" width="120" height="70" as="geometry" />
        </mxCell>
        <mxCell id="8U288hd-d6_1_I51lwPs-151" style="edgeStyle=none;shape=connector;rounded=0;orthogonalLoop=1;jettySize=auto;html=1;labelBackgroundColor=default;strokeColor=default;align=center;verticalAlign=middle;fontFamily=Helvetica;fontSize=11;fontColor=default;endArrow=none;endFill=0;exitX=0;exitY=0.5;exitDx=0;exitDy=0;entryX=0.5;entryY=0.5;entryDx=0;entryDy=0;entryPerimeter=0;" parent="1" source="8U288hd-d6_1_I51lwPs-149" target="8U288hd-d6_1_I51lwPs-91" edge="1">
          <mxGeometry relative="1" as="geometry" />
        </mxCell>
        <mxCell id="8U288hd-d6_1_I51lwPs-149" value="View rider Details" style="ellipse;whiteSpace=wrap;html=1;" parent="1" vertex="1">
          <mxGeometry x="247.5" y="2980" width="120" height="70" as="geometry" />
        </mxCell>
        <mxCell id="8U288hd-d6_1_I51lwPs-152" value="&lt;b&gt;Rider&lt;br&gt;&lt;/b&gt;" style="shape=umlActor;verticalLabelPosition=bottom;verticalAlign=top;html=1;outlineConnect=0;" parent="1" vertex="1">
          <mxGeometry x="80" y="3145" width="30" height="60" as="geometry" />
        </mxCell>
        <mxCell id="8U288hd-d6_1_I51lwPs-153" value="View customer Details" style="ellipse;whiteSpace=wrap;html=1;" parent="1" vertex="1">
          <mxGeometry x="247.5" y="3110" width="120" height="70" as="geometry" />
        </mxCell>
        <mxCell id="8U288hd-d6_1_I51lwPs-154" style="edgeStyle=none;shape=connector;rounded=0;orthogonalLoop=1;jettySize=auto;html=1;entryX=0.5;entryY=0.5;entryDx=0;entryDy=0;entryPerimeter=0;labelBackgroundColor=default;strokeColor=default;align=center;verticalAlign=middle;fontFamily=Helvetica;fontSize=11;fontColor=default;endArrow=none;endFill=0;" parent="1" source="8U288hd-d6_1_I51lwPs-153" target="8U288hd-d6_1_I51lwPs-152" edge="1">
          <mxGeometry relative="1" as="geometry" />
        </mxCell>
        <mxCell id="8U288hd-d6_1_I51lwPs-155" value="View customer Address" style="ellipse;whiteSpace=wrap;html=1;" parent="1" vertex="1">
          <mxGeometry x="652.5" y="3120" width="100" height="50" as="geometry" />
        </mxCell>
        <mxCell id="8U288hd-d6_1_I51lwPs-156" value="&amp;lt;&amp;lt;include&amp;gt;&amp;gt;" style="text;html=1;strokeColor=none;fillColor=none;align=center;verticalAlign=middle;whiteSpace=wrap;rounded=0;" parent="1" vertex="1">
          <mxGeometry x="532.5" y="3120" width="60" height="30" as="geometry" />
        </mxCell>
        <mxCell id="8U288hd-d6_1_I51lwPs-157" value="" style="endArrow=none;dashed=1;html=1;dashPattern=1 3;strokeWidth=2;rounded=0;labelBackgroundColor=default;strokeColor=default;align=center;verticalAlign=middle;fontFamily=Helvetica;fontSize=11;fontColor=default;shape=connector;entryX=0;entryY=0.5;entryDx=0;entryDy=0;exitX=1;exitY=0.5;exitDx=0;exitDy=0;startArrow=openThin;startFill=0;" parent="1" target="8U288hd-d6_1_I51lwPs-155" edge="1">
          <mxGeometry width="50" height="50" relative="1" as="geometry">
            <mxPoint x="367.5" y="3145" as="sourcePoint" />
            <mxPoint x="442.5" y="3300" as="targetPoint" />
          </mxGeometry>
        </mxCell>
        <mxCell id="8U288hd-d6_1_I51lwPs-158" value="View pacage Details" style="ellipse;whiteSpace=wrap;html=1;" parent="1" vertex="1">
          <mxGeometry x="250" y="3195" width="120" height="70" as="geometry" />
        </mxCell>
        <mxCell id="8U288hd-d6_1_I51lwPs-159" style="edgeStyle=none;shape=connector;rounded=0;orthogonalLoop=1;jettySize=auto;html=1;entryX=0.5;entryY=0.5;entryDx=0;entryDy=0;entryPerimeter=0;labelBackgroundColor=default;strokeColor=default;align=center;verticalAlign=middle;fontFamily=Helvetica;fontSize=11;fontColor=default;endArrow=none;endFill=0;" parent="1" source="8U288hd-d6_1_I51lwPs-158" target="8U288hd-d6_1_I51lwPs-152" edge="1">
          <mxGeometry relative="1" as="geometry" />
        </mxCell>
        <mxCell id="8U288hd-d6_1_I51lwPs-160" value="View price&amp;nbsp;&amp;nbsp;" style="ellipse;whiteSpace=wrap;html=1;" parent="1" vertex="1">
          <mxGeometry x="655" y="3205" width="100" height="50" as="geometry" />
        </mxCell>
        <mxCell id="8U288hd-d6_1_I51lwPs-161" value="&amp;lt;&amp;lt;include&amp;gt;&amp;gt;" style="text;html=1;strokeColor=none;fillColor=none;align=center;verticalAlign=middle;whiteSpace=wrap;rounded=0;" parent="1" vertex="1">
          <mxGeometry x="535" y="3205" width="60" height="30" as="geometry" />
        </mxCell>
        <mxCell id="8U288hd-d6_1_I51lwPs-162" value="" style="endArrow=none;dashed=1;html=1;dashPattern=1 3;strokeWidth=2;rounded=0;labelBackgroundColor=default;strokeColor=default;align=center;verticalAlign=middle;fontFamily=Helvetica;fontSize=11;fontColor=default;shape=connector;entryX=0;entryY=0.5;entryDx=0;entryDy=0;exitX=1;exitY=0.5;exitDx=0;exitDy=0;startArrow=openThin;startFill=0;" parent="1" target="8U288hd-d6_1_I51lwPs-160" edge="1">
          <mxGeometry width="50" height="50" relative="1" as="geometry">
            <mxPoint x="370" y="3230" as="sourcePoint" />
            <mxPoint x="445" y="3385" as="targetPoint" />
          </mxGeometry>
        </mxCell>
        <mxCell id="8U288hd-d6_1_I51lwPs-166" style="edgeStyle=none;shape=connector;rounded=0;orthogonalLoop=1;jettySize=auto;html=1;entryX=1;entryY=0;entryDx=0;entryDy=0;labelBackgroundColor=default;strokeColor=default;align=center;verticalAlign=middle;fontFamily=Helvetica;fontSize=11;fontColor=default;endArrow=none;endFill=0;" parent="1" source="8U288hd-d6_1_I51lwPs-163" target="8U288hd-d6_1_I51lwPs-99" edge="1">
          <mxGeometry relative="1" as="geometry" />
        </mxCell>
        <mxCell id="8U288hd-d6_1_I51lwPs-163" value="View Rental Items" style="ellipse;whiteSpace=wrap;html=1;" parent="1" vertex="1">
          <mxGeometry x="480" y="1830" width="120" height="70" as="geometry" />
        </mxCell>
        <mxCell id="8U288hd-d6_1_I51lwPs-167" style="edgeStyle=none;shape=connector;rounded=0;orthogonalLoop=1;jettySize=auto;html=1;entryX=1;entryY=1;entryDx=0;entryDy=0;labelBackgroundColor=default;strokeColor=default;align=center;verticalAlign=middle;fontFamily=Helvetica;fontSize=11;fontColor=default;endArrow=none;endFill=0;" parent="1" source="8U288hd-d6_1_I51lwPs-164" target="8U288hd-d6_1_I51lwPs-99" edge="1">
          <mxGeometry relative="1" as="geometry" />
        </mxCell>
        <mxCell id="8U288hd-d6_1_I51lwPs-164" value="View wholesale Items" style="ellipse;whiteSpace=wrap;html=1;" parent="1" vertex="1">
          <mxGeometry x="480" y="1920" width="120" height="70" as="geometry" />
        </mxCell>
      </root>
    </mxGraphModel>
  </diagram>
</mxfile>
